<?xml version="1.0" standalone="no"?>
<!DOCTYPE svg PUBLIC "-//W3C//DTD SVG 20010904//EN"
 "http://www.w3.org/TR/2001/REC-SVG-20010904/DTD/svg10.dtd">
<svg version="1.0" xmlns="http://www.w3.org/2000/svg"
 width="500.000000pt" height="500.000000pt" viewBox="0 0 500.000000 500.000000"
 preserveAspectRatio="xMidYMid meet">
<metadata>
Created by potrace 1.14, written by Peter Selinger 2001-2017
</metadata>
<g transform="translate(0.000000,500.000000) scale(0.100000,-0.100000)"
fill="#000000" stroke="none">
<path d="M2273 4900 c-472 -46 -915 -228 -1250 -513 -357 -303 -580 -665 -677
-1097 -136 -610 53 -1267 498 -1728 299 -310 648 -513 1062 -618 127 -32 304
-61 409 -66 l50 -3 3 -345 2 -345 395 395 c297 297 398 392 404 381 5 -8 91
-212 191 -455 101 -243 184 -442 185 -444 2 -2 132 61 289 140 251 125 286
145 282 163 -3 11 -87 214 -186 450 -179 430 -179 430 -159 448 20 16 60 17
535 17 283 0 514 3 514 8 0 4 -112 120 -250 257 -137 137 -250 253 -250 257 0
4 20 38 44 75 53 83 134 243 170 339 186 492 161 1023 -69 1499 -99 204 -196
344 -350 504 -354 368 -787 589 -1305 666 -129 19 -413 27 -537 15z m1535
-2835 c331 -330 602 -603 602 -607 0 -4 -209 -9 -464 -10 l-463 -3 208 -500
c115 -275 209 -503 209 -507 0 -13 -262 -140 -270 -131 -4 4 -96 224 -205 488
-109 264 -200 482 -203 485 -3 3 -7 0 -9 -6 -2 -6 -154 -159 -338 -339 l-335
-327 0 1359 0 1358 333 -330 c182 -182 603 -600 935 -930z m782 -630 c0 -8 4
-15 9 -15 5 0 9 -10 8 -22 0 -13 3 -35 7 -50 10 -34 -9 -39 -20 -6 l-6 21 -19
-24 c-26 -35 -33 -17 -9 25 12 19 20 41 17 48 -2 7 -17 -11 -33 -39 -16 -29
-35 -53 -42 -53 -13 0 0 28 52 113 13 21 36 23 36 2z"/>
</g>
</svg>
